<svg xmlns="http://www.w3.org/2000/svg" height="511pt" version="1.1" viewBox="-53 1 511 511.99906" width="511pt">
<g id="surface1">
<path d="M 276.410156 3.957031 C 274.0625 1.484375 270.84375 0 267.507812 0 L 67.777344 0 C 30.921875 0 0.5 30.300781 0.5 67.152344 L 0.5 444.84375 C 0.5 481.699219 30.921875 512 67.777344 512 L 338.863281 512 C 375.71875 512 406.140625 481.699219 406.140625 444.84375 L 406.140625 144.941406 C 406.140625 141.726562 404.65625 138.636719 402.554688 136.285156 Z M 279.996094 43.65625 L 364.464844 132.328125 L 309.554688 132.328125 C 293.230469 132.328125 279.996094 119.21875 279.996094 102.894531 Z M 338.863281 487.265625 L 67.777344 487.265625 C 44.652344 487.265625 25.234375 468.097656 25.234375 444.84375 L 25.234375 67.152344 C 25.234375 44.027344 44.527344 24.734375 67.777344 24.734375 L 255.261719 24.734375 L 255.261719 102.894531 C 255.261719 132.945312 279.503906 157.0625 309.554688 157.0625 L 381.40625 157.0625 L 381.40625 444.84375 C 381.40625 468.097656 362.113281 487.265625 338.863281 487.265625 Z M 338.863281 487.265625 " style=" stroke:none;fill-rule:nonzero;fill:rgb(0%,0%,0%);fill-opacity:1;" />
<path d="M 305.101562 401.933594 L 101.539062 401.933594 C 94.738281 401.933594 89.171875 407.496094 89.171875 414.300781 C 89.171875 421.101562 94.738281 426.667969 101.539062 426.667969 L 305.226562 426.667969 C 312.027344 426.667969 317.59375 421.101562 317.59375 414.300781 C 317.59375 407.496094 312.027344 401.933594 305.101562 401.933594 Z M 305.101562 401.933594 " style=" stroke:none;fill-rule:nonzero;fill:rgb(0%,0%,0%);fill-opacity:1;" />
<path d="M 102.898438 336.386719 L 233.867188 336.386719 C 240.671875 336.386719 246.605469 330.699219 246.605469 323.894531 L 246.605469 302.996094 L 297.433594 334.53125 C 299.414062 335.765625 301.640625 336.386719 303.867188 336.386719 C 305.96875 336.386719 307.824219 335.890625 309.679688 334.777344 C 313.636719 332.554688 315.863281 328.472656 315.863281 324.019531 L 315.863281 207.769531 C 315.863281 203.4375 313.761719 199.359375 310.050781 197.132812 C 306.339844 194.90625 302.011719 194.78125 298.175781 196.761719 L 246.730469 223.96875 L 246.730469 207.769531 C 246.730469 200.964844 240.792969 195.402344 233.992188 195.402344 L 102.898438 195.402344 C 96.097656 195.402344 90.78125 200.84375 90.78125 207.769531 L 90.78125 323.894531 C 90.78125 330.699219 96.097656 336.386719 102.898438 336.386719 Z M 291.128906 228.296875 L 291.128906 301.882812 L 246.605469 273.933594 L 246.605469 252.042969 Z M 115.515625 220.136719 L 221.871094 220.136719 L 221.871094 311.652344 L 115.515625 311.652344 Z M 115.515625 220.136719 " style=" stroke:none;fill-rule:nonzero;fill:rgb(0%,0%,0%);fill-opacity:1;" />
</g>
</svg>
